<?xml version="1.0" standalone="no"?>
<!DOCTYPE svg PUBLIC "-//W3C//DTD SVG 20010904//EN"
 "http://www.w3.org/TR/2001/REC-SVG-20010904/DTD/svg10.dtd">
<svg version="1.0" xmlns="http://www.w3.org/2000/svg"
 width="260.000000pt" height="260.000000pt" viewBox="0 0 260.000000 260.000000"
 preserveAspectRatio="xMidYMid meet">
<metadata>
Created by potrace 1.14, written by Peter Selinger 2001-2017
</metadata>
<g transform="translate(0.000000,260.000000) scale(0.100000,-0.100000)"
fill="#000000" stroke="none">
<path d="M2415 2390 c-66 -20 -123 -36 -127 -33 -4 2 -9 -1 -12 -6 -4 -5 -24
-12 -46 -16 -22 -4 -44 -14 -49 -23 -5 -10 -23 -73 -41 -142 -17 -69 -38 -150
-46 -180 -17 -63 -97 -370 -158 -607 -23 -90 -45 -165 -48 -168 -2 -3 -5 141
-4 319 l0 324 80 25 79 24 -1 174 c0 96 -1 179 -1 186 -1 8 -10 9 -31 3 -17
-5 -31 -9 -33 -9 -1 0 -9 -2 -17 -5 -8 -3 -62 -19 -120 -35 -58 -16 -159 -45
-225 -64 -66 -20 -129 -37 -140 -39 -11 -2 -23 -7 -26 -12 -4 -5 -17 -10 -30
-11 -13 -1 -30 -3 -36 -4 -10 -1 -13 -46 -13 -191 0 -104 1 -190 3 -190 1 0
37 11 80 24 l77 24 0 -177 c0 -124 4 -181 12 -189 15 -15 45 -16 50 -2 2 5 19
0 38 -12 53 -33 70 -31 70 9 0 28 3 33 23 31 22 -2 22 -4 19 -102 -4 -117 -22
-168 -75 -203 -46 -32 -65 -29 -30 5 37 34 69 92 51 92 -9 0 -9 3 0 12 14 14
16 118 2 118 -6 0 -10 -26 -10 -59 0 -33 -4 -62 -8 -65 -19 -11 -30 13 -30 64
0 86 -1 97 -11 81 -10 -15 -7 -123 3 -140 4 -6 2 -11 -5 -11 -7 0 -9 -10 -7
-25 6 -30 -11 -48 -32 -35 -20 13 -33 12 -25 -1 4 -6 -2 -13 -14 -16 -21 -5
-21 -10 -21 -259 0 -238 1 -254 18 -254 10 0 23 5 30 12 7 7 12 9 12 5 0 -3
11 -2 25 3 14 5 36 12 48 14 12 3 69 19 126 36 57 17 111 33 120 35 25 6 196
58 200 62 3 2 34 139 46 208 10 56 15 61 68 75 28 8 57 15 62 16 7 1 11 -38
10 -110 0 -141 -1 -139 40 -122 18 8 36 12 38 9 3 -2 16 1 29 8 12 7 28 14 33
14 17 2 68 16 98 27 27 10 27 12 27 97 0 86 0 87 -35 121 -43 41 -47 64 -9 50
37 -14 44 -13 44 11 0 17 -5 20 -25 17 -21 -5 -23 -3 -14 14 6 11 17 17 25 14
23 -9 16 8 -8 19 -22 10 -88 108 -88 130 0 5 14 -5 30 -24 33 -37 34 -37 45
-2 5 18 4 22 -6 16 -8 -5 -5 1 6 12 11 11 23 19 28 16 4 -2 7 228 7 511 0 407
-3 516 -12 515 -7 -1 -67 -18 -133 -39z m98 -60 c-1 -43 -16 -62 -43 -57 -20
3 -25 71 -5 90 8 9 23 14 32 13 14 -2 18 -12 16 -46z m-113 -36 c0 -24 -3 -44
-7 -44 -5 0 -18 -3 -30 -6 -21 -6 -23 -3 -23 40 0 39 4 48 23 55 31 12 37 6
37 -45z m-112 -31 c-3 -44 -5 -48 -30 -51 -27 -3 -28 -2 -28 42 0 44 7 54 43
55 15 1 18 -6 15 -46z m-268 -75 c0 -36 -4 -45 -25 -54 -31 -15 -35 -10 -35
41 0 48 5 55 37 55 20 0 23 -5 23 -42z m-115 -32 c1 -30 -5 -42 -23 -54 -30
-19 -41 -6 -37 45 4 65 60 73 60 9z m-112 1 c5 -14 2 -76 -4 -81 -11 -9 -49
-16 -50 -9 -8 69 1 103 30 103 10 0 21 -6 24 -13z m-103 -63 c0 -39 -3 -46
-26 -54 -14 -6 -27 -10 -30 -10 -10 0 -3 99 7 102 41 14 49 7 49 -38z m-117
-34 c-1 -43 -16 -62 -43 -57 -19 3 -22 92 -3 92 6 0 15 3 19 8 17 17 29 -2 27
-43z m-109 -30 c2 -36 -1 -43 -26 -56 -15 -8 -29 -11 -30 -7 -9 48 -3 107 11
99 4 -3 13 -1 21 4 19 12 22 8 24 -40z m834 -507 c-2 -97 -8 -113 -39 -113
-15 0 -14 8 3 83 10 45 21 92 23 105 11 46 15 19 13 -75z m-284 -132 c-25 -59
-30 -91 -29 -186 2 -92 0 -107 -16 -115 -24 -13 -26 -7 -24 80 2 84 -1 96 -20
80 -8 -7 -3 19 12 67 14 43 27 83 28 89 2 7 15 9 30 6 19 -3 24 -9 19 -21z
m88 15 c8 -7 25 -13 38 -12 16 1 26 -5 28 -18 2 -10 0 -16 -6 -12 -5 3 -16 -2
-23 -11 -12 -14 -11 -15 11 -8 14 4 27 7 30 7 25 1 30 -6 30 -41 0 -40 -11
-51 -43 -43 -12 3 -14 8 -8 16 14 17 2 56 -15 49 -9 -3 -12 -15 -9 -34 4 -20
0 -31 -12 -38 -17 -9 -17 -11 -1 -38 17 -29 22 -58 20 -101 -2 -27 -43 -47
-55 -26 -9 16 -9 24 -1 23 8 -1 24 22 24 34 0 4 -7 7 -15 7 -8 0 -15 -4 -15
-8 0 -5 -16 -16 -35 -25 -48 -23 -44 -7 5 23 22 14 40 31 40 39 0 10 -6 10
-26 -3 -14 -10 -31 -15 -37 -13 -7 2 5 15 25 28 21 13 38 27 38 32 0 11 -13 8
-34 -8 -22 -16 -36 -19 -36 -7 0 4 14 15 30 24 46 26 61 88 23 88 -12 0 -14
-7 -10 -29 5 -24 2 -31 -14 -36 -11 -4 -22 -5 -23 -3 -8 9 -14 78 -6 78 4 0
15 18 24 40 16 41 35 50 58 26z m279 4 c14 0 11 -17 -6 -33 -13 -13 -13 -16 0
-27 14 -12 19 -7 16 13 -1 9 28 42 32 36 2 -2 9 -12 16 -21 12 -16 10 -23 -13
-53 -38 -49 -88 -95 -105 -95 -10 0 -8 7 8 24 l23 24 -21 21 c-12 12 -21 18
-21 14 0 -3 -3 -4 -6 -1 -3 3 4 23 15 44 12 21 21 45 21 52 0 9 6 12 16 8 9
-3 20 -6 25 -6z m-583 -52 c5 -7 8 -37 6 -66 -2 -31 0 -51 5 -47 5 3 13 0 17
-6 8 -14 -10 -26 -38 -24 -20 1 -22 8 -25 66 -3 68 1 89 15 89 5 0 14 -6 20
-12z m697 -96 c-9 -10 -45 -12 -45 -4 0 19 23 32 37 20 7 -6 11 -13 8 -16z
m-275 -32 c0 -5 -11 -12 -25 -17 l-26 -8 20 -22 c11 -11 26 -23 33 -26 9 -3 8
-9 -7 -21 -11 -8 -23 -16 -26 -16 -9 0 -49 95 -49 117 1 17 1 17 11 1 14 -24
25 -23 32 4 5 18 8 19 21 8 9 -7 16 -16 16 -20z m153 -23 c-3 -6 1 -15 10 -22
8 -6 13 -16 9 -21 -10 -15 -85 -64 -90 -59 -2 2 8 19 22 38 14 19 26 43 26 54
0 11 7 20 15 20 8 0 11 -5 8 -10z m108 -1 c-16 -7 -20 -16 -17 -45 4 -43 -7
-67 -33 -74 -14 -3 -22 1 -27 15 -3 11 -2 23 3 27 15 10 14 69 -1 78 -9 5 7 8
40 8 41 0 50 -2 35 -9z m-707 -31 c8 -8 18 -15 23 -15 4 0 14 -4 22 -9 11 -7
10 -13 -4 -35 -22 -33 -30 -33 -44 2 -6 15 -15 37 -21 50 -11 25 1 29 24 7z
m742 -179 c-2 -52 -3 -53 -35 -58 -23 -3 -25 0 -25 41 -1 35 3 45 19 52 38 15
43 10 41 -35z m-114 -26 c4 -44 -19 -77 -45 -67 -22 8 -20 84 1 97 30 17 40
11 44 -30z m-317 -104 c1 -38 -17 -63 -45 -62 -10 1 -16 14 -18 42 -3 34 1 42
20 52 34 16 42 10 43 -32z m-115 -28 c0 -50 -7 -62 -37 -66 -21 -3 -23 1 -23
43 0 38 4 47 23 55 35 14 37 12 37 -32z m-110 -43 c0 -39 -3 -44 -31 -54 l-30
-10 3 52 c2 31 8 52 15 52 6 0 15 3 19 7 14 15 24 -4 24 -47z m-106 -29 c1
-32 -3 -40 -26 -52 -30 -16 -33 -13 -37 34 -3 39 14 64 42 60 16 -2 20 -11 21
-42z m-116 -31 c0 -33 -6 -48 -19 -55 -31 -17 -45 -3 -41 43 5 43 15 57 44 57
14 0 17 -9 16 -45z"/>
<path d="M2083 1373 c-13 -9 -23 -18 -23 -22 0 -13 39 -9 51 5 18 22 -2 35
-28 17z"/>
<path d="M2336 1341 c-8 -13 20 -45 32 -37 7 4 12 10 12 14 0 12 -39 32 -44
23z"/>
<path d="M1276 2062 c-3 -2 -124 -39 -156 -47 -8 -2 -15 -4 -15 -5 0 -1 -7 -3
-15 -5 -66 -17 -106 -29 -110 -32 -8 -7 -8 -1503 1 -1508 4 -3 20 0 36 6 15 6
35 12 43 14 8 2 41 11 74 20 32 9 64 18 70 19 6 1 16 4 21 8 6 3 27 9 47 13
21 4 41 12 46 19 5 6 9 130 8 276 l-1 265 -27 -1 c-15 -1 -25 3 -22 8 3 5 8 7
11 4 12 -12 40 41 39 74 -1 32 -4 35 -31 36 -16 1 -34 2 -39 3 -4 1 2 10 15
20 13 11 26 15 27 10 2 -5 10 -9 17 -9 8 0 13 14 13 41 1 29 -3 39 -12 36 -18
-7 -40 8 -32 22 4 6 15 10 24 9 16 -3 17 26 18 354 l1 358 -24 -2 c-13 -2 -26
-4 -27 -6z m17 -45 c5 -15 2 -75 -5 -82 -2 -3 -15 -6 -28 -7 -21 -3 -25 2 -26
27 -3 54 5 66 47 74 4 0 9 -5 12 -12z m-117 -114 c-4 -8 -16 -13 -28 -11 -19
2 -24 10 -26 44 -3 38 0 43 25 51 27 10 28 9 31 -30 2 -21 1 -46 -2 -54z
m-106 14 c0 -36 -4 -46 -24 -55 -31 -14 -36 -8 -36 44 0 42 8 52 43 53 14 1
17 -7 17 -42z m162 -657 l-3 -156 -27 1 -27 0 3 157 3 157 27 -2 27 -2 -3
-155z m-92 140 c17 -9 17 -13 -10 -62 -29 -53 -69 -103 -76 -95 -2 2 5 24 15
48 11 24 21 55 23 69 4 26 15 50 24 50 3 0 14 -4 24 -10z m158 -761 c-1 -43
-17 -63 -45 -57 -14 2 -18 12 -17 38 3 51 2 50 27 59 31 12 37 6 35 -40z
m-115 -43 c-4 -35 -10 -43 -38 -48 -18 -3 -20 3 -20 42 0 37 4 47 25 57 21 11
26 10 31 -5 3 -9 4 -30 2 -46z m-112 12 c0 -7 2 -26 3 -42 1 -20 -5 -33 -21
-44 -29 -18 -37 -11 -40 36 -1 37 16 62 44 62 7 0 13 -6 14 -12z"/>
<path d="M875 1945 c-39 -13 -217 -65 -239 -70 -6 -1 -22 -7 -36 -12 l-26 -11
1 -261 0 -262 -55 -15 c-30 -9 -62 -18 -70 -21 -8 -3 -25 -8 -37 -10 l-23 -4
0 261 0 260 -22 -4 c-49 -11 -146 -38 -200 -57 -32 -11 -62 -17 -68 -14 -5 3
-10 2 -10 -4 0 -5 -10 -11 -22 -13 l-23 -3 -3 -762 -2 -762 27 14 c16 8 39 16
53 19 14 3 79 20 145 39 l120 34 5 307 5 308 90 27 90 27 -1 -301 c0 -165 1
-304 4 -308 2 -4 10 -3 17 3 7 6 17 10 21 9 5 -2 42 8 83 20 41 12 81 24 90
26 9 3 43 13 76 23 l60 18 1 377 2 377 -31 0 c-29 0 -30 1 -13 19 10 11 24 17
32 14 11 -4 14 5 14 37 0 41 -1 42 -26 36 -21 -6 -25 -4 -21 8 4 11 0 16 -11
17 -13 0 -12 3 6 11 12 6 22 15 22 21 0 5 6 5 14 -2 11 -9 13 37 14 289 0 165
-3 302 -7 304 -3 2 -24 -2 -46 -9z m25 -79 c0 -35 -4 -45 -24 -54 -15 -6 -27
-7 -33 -1 -13 13 -1 94 14 94 6 0 15 3 19 7 14 15 24 -4 24 -46z m-115 -29 c1
-44 -3 -52 -31 -61 -26 -8 -33 6 -29 53 5 63 60 70 60 8z m-110 -31 c0 -69
-57 -91 -61 -23 -2 28 2 40 19 52 31 21 41 14 42 -29z m-312 -91 c-2 -39 -25
-69 -48 -62 -17 6 -13 87 5 97 30 19 45 7 43 -35z m-113 -29 c0 -45 -13 -66
-42 -66 -15 0 -18 8 -18 43 0 47 9 62 40 64 17 2 20 -4 20 -41z m-110 -40 c0
-31 -5 -46 -16 -50 -35 -13 -44 -7 -44 32 0 41 14 62 42 62 15 0 18 -8 18 -44z
m667 -255 c9 -10 10 -18 2 -28 -21 -25 -34 -11 -45 46 -5 22 -3 23 13 11 10
-8 24 -21 30 -29z m-66 -2 c7 -15 5 -24 -11 -42 -12 -12 -20 -17 -19 -12 1 6
-3 23 -9 38 -7 16 -12 32 -12 37 0 15 40 -2 51 -21z m150 21 c18 0 9 -15 -20
-35 -16 -10 -28 -22 -26 -25 2 -3 -4 -11 -15 -17 -16 -11 -16 -8 3 38 14 33
26 48 35 44 7 -3 18 -5 23 -5z m-202 -78 c-5 -2 -9 -14 -9 -27 0 -27 -24 -39
-40 -20 -17 20 27 79 45 62 7 -7 9 -13 4 -15z m192 -43 c10 -6 4 -12 -22 -23
-43 -18 -49 -30 -49 -102 0 -48 -3 -55 -28 -68 -27 -14 -28 -13 -45 16 -14 25
-15 29 -3 25 20 -8 30 10 32 54 1 39 11 62 23 54 5 -2 21 14 36 37 19 28 29
37 35 28 4 -7 14 -16 21 -21z m15 -761 c-2 -24 -4 -46 -5 -49 -2 -16 -42 -16
-49 -1 -21 45 0 91 40 92 15 0 17 -7 14 -42z m-113 -31 c-1 -43 -23 -73 -47
-64 -21 8 -19 84 3 97 30 18 45 7 44 -33z m-113 -36 c0 -41 -4 -51 -20 -56
-29 -9 -40 2 -40 38 0 36 8 51 30 60 28 10 30 7 30 -42z m-310 -83 c0 -50 -7
-62 -37 -66 -20 -3 -23 1 -23 35 0 42 7 57 30 66 28 10 30 7 30 -35z m-110
-35 c0 -44 -13 -69 -29 -59 -6 4 -11 2 -11 -5 0 -8 -4 -8 -13 -1 -13 11 -15
72 -2 91 3 6 17 11 31 11 21 0 24 -4 24 -37z m-115 -35 c-1 -24 -3 -46 -4 -49
0 -4 -12 -9 -26 -11 -24 -5 -25 -3 -25 43 0 47 7 57 41 58 14 1 16 -7 14 -41z"/>
<path d="M1569 1368 c-5 -19 -3 -88 3 -88 4 0 8 3 9 8 5 45 4 74 -3 78 -4 3
-8 4 -9 2z"/>
<path d="M2532 1338 c-17 -17 -15 -25 8 -31 16 -4 20 0 20 19 0 26 -10 30 -28
12z"/>
<path d="M1569 1251 c-4 -61 -3 -71 5 -73 11 -4 16 81 5 88 -5 3 -10 -4 -10
-15z"/>
</g>
</svg>
